<svg width="120" height="120" viewBox="0 0 120 120" xmlns="http://www.w3.org/2000/svg" role="img" aria-label="Meal Guru">
  <rect width="120" height="120" rx="27" fill="#FBF6EF"></rect>
  <g transform="translate(60 62) scale(0.82) translate(-60 -48)" fill="none" stroke-linecap="round" stroke-linejoin="round">
    <path d="M46 30c0-6 6-6 6-12s-6-6-6-12" stroke="#DE982C" stroke-width="5" opacity="0.9"></path>
    <path d="M60 28c0-6 6-6 6-12s-6-6-6-12" stroke="#DE982C" stroke-width="5" opacity="0.7"></path>
    <path d="M74 30c0-6 6-6 6-12s-6-6-6-12" stroke="#DE982C" stroke-width="5" opacity="0.5"></path>
    <path d="M20 52h80c0 6-2 11-5 16a44 44 0 0 1-70 0c-3-5-5-10-5-16z" fill="#CF6A43"></path>
    <path d="M20 52h80" stroke="#984629" stroke-width="6"></path>
    <path d="M60 50c4-9 12-13 21-13-2 9-9 15-18 15" fill="#5E6B39"></path>
  </g>
</svg>